<svg xmlns="http://www.w3.org/2000/svg" viewBox="0 0 48 48"><defs><style>.cls-1{fill:#201602;}</style></defs><title>Asset 9ldpi</title><g id="Layer_2" data-name="Layer 2"><g id="layer_1-2" data-name="layer 1"><path class="cls-1" d="M24,48A24,24,0,1,1,48,24,24,24,0,0,1,24,48ZM24,2A22,22,0,1,0,46,24,22,22,0,0,0,24,2Z"/><path class="cls-1" d="M27,39H14a1,1,0,0,1-.73-1.68L25.64,24,13.27,10.68A1,1,0,0,1,14,9H27a1,1,0,0,1,.73.32l13,14a1,1,0,0,1,0,1.36l-13,14A1,1,0,0,1,27,39ZM16.29,37H26.56L38.64,24,26.56,11H16.29L27.73,23.32a1,1,0,0,1,0,1.36Z"/></g></g></svg>